<?xml version="1.0" encoding="utf-8"?>
<!-- Generator: Adobe Illustrator 23.0.6, SVG Export Plug-In . SVG Version: 6.00 Build 0)  -->
<svg version="1.1" id="Layer_1" xmlns="http://www.w3.org/2000/svg" xmlns:xlink="http://www.w3.org/1999/xlink" x="0px" y="0px"
	 viewBox="-20 -130 820 600" style="enable-background:new -20 -130 820 600;" xml:space="preserve">
<style type="text/css">
	.st0{fill:#FFFFFF;}
	.st1{fill:#030305;}
	.st2{fill:#C8C7E4;}
	.st3{opacity:0.37;}
	.st4{fill:#606161;}
</style>
<g>
	<g>
		<path class="st0" d="M597.41-51.06H457.67c-21.53,0-39.05,17.52-39.05,39.05v85.02c0,10.92-8.88,19.8-19.8,19.8H278.34
			c-10.92,0-19.8-8.88-19.8-19.8V-94.63h-19.25V73.01c0,21.53,17.52,39.05,39.05,39.05h120.48c21.53,0,39.05-17.52,39.05-39.05
			v-85.02c0-10.92,8.88-19.8,19.8-19.8h139.73c10.92,0,19.8,8.88,19.8,19.8v116.43c0,10.92-8.88,19.8-19.8,19.8h-46.52
			c-21.53,0-39.05,17.52-39.05,39.05v130.61c0,10.92-8.88,19.8-19.8,19.8H373.58c-10.92,0-19.8-8.88-19.8-19.8v-39.43
			c0-21.53-17.52-39.05-39.05-39.05H199.31c-21.53,0-39.05,17.52-39.05,39.05v139.27h19.25V254.46c0-10.92,8.88-19.8,19.8-19.8
			h115.42c10.92,0,19.8,8.88,19.8,19.8v39.43c0,21.53,17.52,39.05,39.05,39.05h118.46c21.53,0,39.05-17.52,39.05-39.05V163.27
			c0-10.92,8.88-19.8,19.8-19.8h46.52c21.53,0,39.05-17.52,39.05-39.05V-12.01C636.46-33.55,618.94-51.06,597.41-51.06z"/>
		<path class="st1" d="M180.01,394.24h-20.26V254.46c0-21.81,17.75-39.56,39.56-39.56h115.42c21.81,0,39.56,17.75,39.56,39.56v39.43
			c0,10.64,8.66,19.3,19.3,19.3h118.46c10.64,0,19.3-8.66,19.3-19.3V163.27c0-21.81,17.75-39.56,39.56-39.56h46.52
			c10.64,0,19.3-8.66,19.3-19.3V-12.01c0-10.64-8.66-19.3-19.3-19.3H457.67c-10.64,0-19.3,8.66-19.3,19.3v85.02
			c0,21.81-17.75,39.56-39.56,39.56H278.34c-21.81,0-39.56-17.75-39.56-39.56V-95.14h20.26V73.01c0,10.64,8.66,19.3,19.3,19.3
			h120.48c10.64,0,19.3-8.66,19.3-19.3v-85.02c0-21.81,17.75-39.56,39.56-39.56h139.73c21.81,0,39.56,17.75,39.56,39.56v116.43
			c0,21.81-17.75,39.56-39.56,39.56h-46.52c-10.64,0-19.3,8.66-19.3,19.3v130.61c0,21.81-17.75,39.56-39.56,39.56H373.58
			c-21.81,0-39.56-17.75-39.56-39.56v-39.43c0-10.64-8.66-19.3-19.3-19.3H199.31c-10.64,0-19.3,8.66-19.3,19.3V394.24z
			 M160.76,393.22H179V254.46c0-11.2,9.11-20.31,20.31-20.31h115.42c11.2,0,20.31,9.11,20.31,20.31v39.43
			c0,21.25,17.29,38.55,38.55,38.55h118.46c21.25,0,38.55-17.29,38.55-38.55V163.27c0-11.2,9.11-20.31,20.31-20.31h46.52
			c21.25,0,38.55-17.29,38.55-38.55V-12.01c0-21.25-17.29-38.55-38.55-38.55H457.67c-21.25,0-38.55,17.29-38.55,38.55v85.02
			c0,11.2-9.11,20.31-20.31,20.31H278.34c-11.2,0-20.31-9.11-20.31-20.31V-94.13h-18.24V73.01c0,21.25,17.29,38.55,38.55,38.55
			h120.48c21.25,0,38.55-17.29,38.55-38.55v-85.02c0-11.2,9.11-20.31,20.31-20.31h139.73c11.2,0,20.31,9.11,20.31,20.31v116.43
			c0,11.2-9.11,20.31-20.31,20.31h-46.52c-21.25,0-38.55,17.29-38.55,38.55v130.61c0,11.2-9.11,20.31-20.31,20.31H373.58
			c-11.2,0-20.31-9.11-20.31-20.31v-39.43c0-21.25-17.29-38.55-38.55-38.55H199.31c-21.25,0-38.55,17.29-38.55,38.55V393.22z"/>
	</g>
	<g>
		<path class="st1" d="M179.02,393.22h-18.24V254.46c0-21.25,17.29-38.55,38.55-38.55h115.42c21.25,0,38.55,17.29,38.55,38.55v39.43
			c0,11.2,9.11,20.31,20.31,20.31h118.46c11.2,0,20.31-9.11,20.31-20.31V163.27c0-21.25,17.29-38.55,38.55-38.55h46.52
			c11.2,0,20.31-9.11,20.31-20.31V-12.01c0-11.2-9.11-20.31-20.31-20.31H457.69c-11.2,0-20.31,9.11-20.31,20.31v85.02
			c0,21.25-17.29,38.55-38.55,38.55H278.35c-21.25,0-38.55-17.29-38.55-38.55V-94.13h18.24V73.01c0,11.2,9.11,20.31,20.31,20.31
			h120.48c11.2,0,20.31-9.11,20.31-20.31v-85.02c0-21.25,17.29-38.55,38.55-38.55h139.73c21.25,0,38.55,17.29,38.55,38.55v116.43
			c0,21.25-17.29,38.55-38.55,38.55H550.9c-11.2,0-20.31,9.11-20.31,20.31v130.61c0,21.25-17.29,38.55-38.55,38.55H373.59
			c-21.25,0-38.55-17.29-38.55-38.55v-39.43c0-11.2-9.11-20.31-20.31-20.31H199.32c-11.2,0-20.31,9.11-20.31,20.31V393.22z"/>
		<path class="st0" d="M179.52,393.73h-19.25V254.46c0-21.53,17.52-39.05,39.05-39.05h115.42c21.53,0,39.05,17.52,39.05,39.05v39.43
			c0,10.92,8.88,19.8,19.8,19.8h118.46c10.92,0,19.8-8.88,19.8-19.8V163.27c0-21.53,17.52-39.05,39.05-39.05h46.52
			c10.92,0,19.8-8.88,19.8-19.8V-12.01c0-10.92-8.88-19.8-19.8-19.8H457.69c-10.92,0-19.8,8.88-19.8,19.8v85.02
			c0,21.53-17.52,39.05-39.05,39.05H278.35c-21.53,0-39.05-17.52-39.05-39.05V-94.63h19.25V73.01c0,10.92,8.88,19.8,19.8,19.8
			h120.48c10.92,0,19.8-8.88,19.8-19.8v-85.02c0-21.53,17.52-39.05,39.05-39.05h139.73c21.53,0,39.05,17.52,39.05,39.05v116.43
			c0,21.53-17.52,39.05-39.05,39.05H550.9c-10.92,0-19.8,8.88-19.8,19.8v130.61c0,21.53-17.52,39.05-39.05,39.05H373.59
			c-21.53,0-39.05-17.52-39.05-39.05v-39.43c0-10.92-8.88-19.8-19.8-19.8H199.32c-10.92,0-19.8,8.88-19.8,19.8V393.73z
			 M161.28,392.72h17.22V254.46c0-11.48,9.34-20.82,20.82-20.82h115.42c11.48,0,20.82,9.34,20.82,20.82v39.43
			c0,20.98,17.06,38.04,38.04,38.04h118.46c20.98,0,38.04-17.06,38.04-38.04V163.27c0-11.48,9.34-20.82,20.82-20.82h46.52
			c20.98,0,38.04-17.06,38.04-38.04V-12.01c0-20.98-17.06-38.04-38.04-38.04H457.69c-20.98,0-38.04,17.06-38.04,38.04v85.02
			c0,11.48-9.34,20.82-20.82,20.82H278.35c-11.48,0-20.82-9.34-20.82-20.82V-93.62h-17.22V73.01c0,20.98,17.06,38.04,38.04,38.04
			h120.48c20.98,0,38.04-17.06,38.04-38.04v-85.02c0-11.48,9.34-20.82,20.82-20.82h139.73c11.48,0,20.82,9.34,20.82,20.82v116.43
			c0,11.48-9.34,20.82-20.82,20.82H550.9c-20.98,0-38.04,17.06-38.04,38.04v130.61c0,11.48-9.34,20.82-20.82,20.82H373.59
			c-11.48,0-20.82-9.34-20.82-20.82v-39.43c0-20.98-17.06-38.04-38.04-38.04H199.32c-20.98,0-38.04,17.06-38.04,38.04V392.72z"/>
	</g>
	<path class="st1" d="M179.02,393.22h-18.24V254.46c0-21.25,17.29-38.55,38.55-38.55h115.42c21.25,0,38.55,17.29,38.55,38.55v39.43
		c0,11.2,9.11,20.31,20.31,20.31h118.46c11.2,0,20.31-9.11,20.31-20.31V163.27c0-21.25,17.29-38.55,38.55-38.55h46.52
		c11.2,0,20.31-9.11,20.31-20.31V-12.01c0-11.2-9.11-20.31-20.31-20.31H457.69c-11.2,0-20.31,9.11-20.31,20.31v85.02
		c0,21.25-17.29,38.55-38.55,38.55H278.35c-21.25,0-38.55-17.29-38.55-38.55V-94.13h18.24V73.01c0,11.2,9.11,20.31,20.31,20.31
		h120.48c11.2,0,20.31-9.11,20.31-20.31v-85.02c0-21.25,17.29-38.55,38.55-38.55h139.73c21.25,0,38.55,17.29,38.55,38.55v116.43
		c0,21.25-17.29,38.55-38.55,38.55H550.9c-11.2,0-20.31,9.11-20.31,20.31v130.61c0,21.25-17.29,38.55-38.55,38.55H373.59
		c-21.25,0-38.55-17.29-38.55-38.55v-39.43c0-11.2-9.11-20.31-20.31-20.31H199.32c-11.2,0-20.31,9.11-20.31,20.31V393.22z"/>
	<g>
		<rect x="168.38" y="389.68" class="st0" width="2.03" height="3.55"/>
		<path class="st0" d="M170.4,382.56h-2.03v-7.12h2.03V382.56z M170.4,368.32h-2.03v-7.12h2.03V368.32z M170.4,354.08h-2.03v-7.12
			h2.03V354.08z M170.4,339.84h-2.03v-7.12h2.03V339.84z M170.4,325.6h-2.03v-7.12h2.03V325.6z M485.36,324.33h-7.12v-2.03h7.12
			V324.33z M471.12,324.33H464v-2.03h7.12V324.33z M456.88,324.33h-7.12v-2.03h7.12V324.33z M442.65,324.33h-7.12v-2.03h7.12V324.33
			z M428.41,324.33h-7.12v-2.03h7.12V324.33z M414.17,324.33h-7.12v-2.03h7.12V324.33z M399.93,324.33h-7.12v-2.03h7.12V324.33z
			 M385.69,324.33h-7.12v-2.03h7.12V324.33z M492.51,324.31l-0.06-2.03c2.3-0.07,4.58-0.42,6.78-1.04l0.55,1.95
			C497.42,323.86,494.97,324.23,492.51,324.31z M371.4,324.28c-2.46-0.13-4.89-0.57-7.23-1.28l0.59-1.94
			c2.18,0.67,4.45,1.07,6.75,1.2L371.4,324.28z M506.55,320.37l-1-1.76c1.99-1.13,3.85-2.5,5.51-4.08l1.39,1.47
			C510.67,317.69,508.69,319.16,506.55,320.37z M357.46,320.01c-2.1-1.26-4.05-2.78-5.8-4.51l1.43-1.44
			c1.63,1.61,3.45,3.03,5.41,4.21L357.46,320.01z M170.4,311.37h-2.03v-7.12h2.03V311.37z M517.15,310.36l-1.7-1.1
			c1.24-1.93,2.25-4,2.99-6.17l1.92,0.66C519.56,306.06,518.48,308.29,517.15,310.36z M347.1,309.75c-1.28-2.1-2.31-4.35-3.05-6.69
			l1.93-0.61c0.69,2.18,1.65,4.28,2.84,6.24L347.1,309.75z M170.4,297.13h-2.03v-7.12h2.03V297.13z M521.87,296.56l-2.02-0.18
			c0.07-0.82,0.11-1.66,0.11-2.5v-4.53h2.03v4.53C521.98,294.78,521.95,295.68,521.87,296.56z M342.71,295.84
			c-0.04-0.65-0.06-1.3-0.06-1.95v-5.23h2.03v5.23c0,0.61,0.02,1.22,0.06,1.83L342.71,295.84z M170.4,282.89h-2.03v-7.12h2.03
			V282.89z M521.98,282.24h-2.03v-7.12h2.03V282.24z M344.67,281.54h-2.03v-7.12h2.03V281.54z M170.4,268.65h-2.03v-7.12h2.03
			V268.65z M521.98,268h-2.03v-7.12h2.03V268z M344.67,267.3h-2.03v-7.12h2.03V267.3z M170.4,254.41l-2.03,0
			c0-2.47,0.3-4.92,0.89-7.29l1.97,0.49C170.69,249.82,170.41,252.11,170.4,254.41z M521.98,253.76h-2.03v-7.12h2.03V253.76z
			 M342.61,253.11c-0.11-2.3-0.49-4.57-1.14-6.76l1.94-0.58c0.7,2.35,1.11,4.78,1.22,7.24L342.61,253.11z M173.68,241.2l-1.79-0.95
			c1.14-2.17,2.55-4.2,4.19-6.03l1.51,1.35C176.06,237.29,174.75,239.18,173.68,241.2z M338.74,240.07
			c-1.16-1.97-2.56-3.8-4.16-5.44l1.45-1.41c1.72,1.76,3.22,3.72,4.46,5.83L338.74,240.07z M521.98,239.52h-2.03v-7.12h2.03V239.52z
			 M182.73,231.03l-1.15-1.67c2.02-1.39,4.21-2.54,6.51-3.4l0.71,1.9C186.66,228.67,184.62,229.73,182.73,231.03z M329.23,230.32
			c-1.95-1.21-4.04-2.19-6.22-2.89l0.63-1.93c2.33,0.76,4.58,1.8,6.66,3.1L329.23,230.32z M195.46,226.24l-0.24-2.01
			c1.19-0.14,2.39-0.21,3.59-0.21h3.64v2.03h-3.64C197.7,226.05,196.57,226.11,195.46,226.24z M316.29,226.12
			c-0.68-0.05-1.38-0.07-2.06-0.07h-4.99v-2.03h4.99c0.73,0,1.47,0.03,2.2,0.08L316.29,226.12z M302.12,226.05h-7.12v-2.03h7.12
			V226.05z M287.89,226.05h-7.12v-2.03h7.12V226.05z M273.65,226.05h-7.12v-2.03h7.12V226.05z M259.41,226.05h-7.12v-2.03h7.12
			V226.05z M245.17,226.05h-7.12v-2.03h7.12V226.05z M230.93,226.05h-7.12v-2.03h7.12V226.05z M216.69,226.05h-7.12v-2.03h7.12
			V226.05z M521.98,225.28h-2.03v-7.12h2.03V225.28z M521.98,211.04h-2.03v-7.12h2.03V211.04z M521.98,196.81h-2.03v-7.12h2.03
			V196.81z M521.98,182.57h-2.03v-7.12h2.03V182.57z M521.98,168.33h-2.03v-5.06c0-0.71,0.02-1.43,0.07-2.13l2.02,0.14
			c-0.05,0.65-0.07,1.32-0.07,1.99V168.33z M523.35,154.55l-1.93-0.62c0.75-2.34,1.79-4.58,3.09-6.67l1.72,1.07
			C525.02,150.28,524.05,152.37,523.35,154.55z M530.51,142.98l-1.42-1.45c1.76-1.72,3.71-3.22,5.82-4.47l1.03,1.74
			C533.98,139.97,532.15,141.37,530.51,142.98z M542.23,136.05l-0.58-1.94c2.34-0.7,4.78-1.12,7.24-1.24l0.1,2.02
			C546.69,135,544.41,135.39,542.23,136.05z M591.65,134.86h-7.12v-2.03h7.12V134.86z M577.41,134.86h-7.12v-2.03h7.12V134.86z
			 M563.17,134.86h-7.12v-2.03h7.12V134.86z M598.83,134.8l-0.12-2.02c2.29-0.14,4.56-0.56,6.74-1.25l0.61,1.93
			C603.71,134.2,601.28,134.65,598.83,134.8z M612.74,130.43l-1.05-1.73c1.96-1.19,3.77-2.62,5.38-4.25l1.44,1.43
			C616.78,127.62,614.84,129.15,612.74,130.43z M623.02,120.09l-1.74-1.04c1.18-1.96,2.12-4.07,2.8-6.26l1.94,0.6
			C625.29,115.72,624.29,117.98,623.02,120.09z M627.31,106.15l-2.02-0.11c0.03-0.54,0.04-1.08,0.04-1.62v-5.44h2.03v5.44
			C627.36,105,627.34,105.58,627.31,106.15z M395.8,103.45h-7.12v-2.03h7.12V103.45z M381.56,103.45h-7.12v-2.03h7.12V103.45z
			 M367.33,103.45h-7.12v-2.03h7.12V103.45z M353.09,103.45h-7.12v-2.03h7.12V103.45z M338.85,103.45h-7.12v-2.03h7.12V103.45z
			 M324.61,103.45h-7.12v-2.03h7.12V103.45z M310.37,103.45h-7.12v-2.03h7.12V103.45z M296.13,103.45h-7.12v-2.03h7.12V103.45z
			 M281.9,103.45h-4.05c-1.06,0-2.12-0.05-3.17-0.16l0.21-2.02c0.97,0.1,1.97,0.15,2.96,0.15h4.05V103.45z M403.06,103.08l-0.31-2
			c2.26-0.35,4.48-0.98,6.59-1.87l0.79,1.87C407.86,102.03,405.49,102.7,403.06,103.08z M267.51,101.65
			c-2.3-0.83-4.51-1.95-6.56-3.31l1.13-1.69c1.91,1.28,3.97,2.32,6.12,3.09L267.51,101.65z M416.5,97.43l-1.21-1.62
			c1.84-1.37,3.51-2.96,4.97-4.73l1.56,1.29C420.26,94.26,418.47,95.97,416.5,97.43z M255.38,93.55c-1.66-1.81-3.1-3.82-4.27-5.97
			l1.78-0.97c1.1,2.01,2.44,3.88,3.99,5.58L255.38,93.55z M627.36,91.85h-2.03v-7.12h2.03V91.85z M425.78,86.18l-1.83-0.88
			c0.99-2.07,1.73-4.25,2.2-6.49l1.98,0.41C427.64,81.63,426.84,83.97,425.78,86.18z M248.4,80.75c-0.62-2.36-0.95-4.81-0.99-7.28
			l2.03-0.03c0.03,2.3,0.35,4.59,0.92,6.79L248.4,80.75z M627.36,77.62h-2.03V70.5h2.03V77.62z M428.77,71.94h-2.03v-7.12h2.03
			V71.94z M249.43,66.34h-2.03v-7.12h2.03V66.34z M627.36,63.38h-2.03v-7.12h2.03V63.38z M428.77,57.7h-2.03v-7.12h2.03V57.7z
			 M249.43,52.1h-2.03v-7.12h2.03V52.1z M627.36,49.14h-2.03v-7.12h2.03V49.14z M428.77,43.47h-2.03v-7.12h2.03V43.47z
			 M249.43,37.86h-2.03v-7.12h2.03V37.86z M627.36,34.9h-2.03v-7.12h2.03V34.9z M428.77,29.23h-2.03v-7.12h2.03V29.23z
			 M249.43,23.63h-2.03v-7.12h2.03V23.63z M627.36,20.66h-2.03v-7.12h2.03V20.66z M428.77,14.99h-2.03V7.87h2.03V14.99z
			 M249.43,9.39h-2.03V2.27h2.03V9.39z M627.36,6.42h-2.03V-0.7h2.03V6.42z M428.77,0.75h-2.03v-7.12h2.03V0.75z M249.43-4.85h-2.03
			v-7.12h2.03V-4.85z M627.36-7.82h-2.03v-4.2c0-0.94-0.05-1.89-0.14-2.82l2.02-0.2c0.1,0.99,0.15,2.01,0.15,3.02V-7.82z
			 M428.8-13.44l-2.02-0.1c0.12-2.46,0.54-4.89,1.24-7.24l1.94,0.58C429.31-18.01,428.92-15.73,428.8-13.44z M249.43-19.09h-2.03
			v-7.12h2.03V-19.09z M623.7-21.52c-0.76-2.16-1.79-4.22-3.06-6.14l1.69-1.12c1.36,2.05,2.46,4.26,3.28,6.57L623.7-21.52z
			 M432.72-26.47l-1.74-1.03c1.25-2.11,2.75-4.07,4.48-5.82l1.45,1.42C435.29-30.27,433.88-28.44,432.72-26.47z M616.2-32.88
			c-1.69-1.56-3.55-2.91-5.56-4.02l0.98-1.77c2.14,1.19,4.15,2.63,5.95,4.3L616.2-32.88z M249.43-33.33h-2.03v-7.12h2.03V-33.33z
			 M442.25-36.19l-1.07-1.72c2.09-1.29,4.33-2.33,6.67-3.08l0.62,1.93C446.29-38.37,444.2-37.4,442.25-36.19z M604.29-39.46
			c-2.2-0.59-4.49-0.91-6.79-0.96l0.04-2.03c2.46,0.05,4.91,0.39,7.27,1.03L604.29-39.46z M455.21-40.36l-0.14-2.02
			c0.7-0.05,1.41-0.07,2.12-0.07h5.07v2.03h-5.07C456.53-40.43,455.86-40.4,455.21-40.36z M590.4-40.43h-7.12v-2.03h7.12V-40.43z
			 M576.16-40.43h-7.12v-2.03h7.12V-40.43z M561.92-40.43h-7.12v-2.03h7.12V-40.43z M547.68-40.43h-7.12v-2.03h7.12V-40.43z
			 M533.44-40.43h-7.12v-2.03h7.12V-40.43z M519.21-40.43h-7.12v-2.03h7.12V-40.43z M504.97-40.43h-7.12v-2.03h7.12V-40.43z
			 M490.73-40.43h-7.12v-2.03h7.12V-40.43z M476.49-40.43h-7.12v-2.03h7.12V-40.43z M249.43-47.57h-2.03v-7.12h2.03V-47.57z
			 M249.43-61.8h-2.03v-7.12h2.03V-61.8z M249.43-76.04h-2.03v-7.12h2.03V-76.04z"/>
		<rect x="247.41" y="-94.13" class="st0" width="2.03" height="3.55"/>
	</g>
	<g>
		<g>
			<path class="st2" d="M168.57,403.14c-5.35,0-9.68-4.34-9.68-9.68c0-5.35,4.34-9.68,9.68-9.68c5.35,0,9.68,4.34,9.68,9.68
				C178.26,398.81,173.92,403.14,168.57,403.14z"/>
		</g>
		<path class="st0" d="M168.57,429.75c-20.04,0-36.29-16.25-36.29-36.29c0-20.04,16.25-36.29,36.29-36.29s36.29,16.25,36.29,36.29
			C204.86,413.5,188.61,429.75,168.57,429.75z"/>
	</g>
	<g>
		<g>
			<path class="st2" d="M249.71-80.96c-5.35,0-9.68-4.34-9.68-9.68c0-5.35,4.34-9.68,9.68-9.68c5.35,0,9.68,4.34,9.68,9.68
				C259.4-85.3,255.06-80.96,249.71-80.96z"/>
		</g>
		<path class="st0" d="M249.71-54.36c-20.04,0-36.29-16.25-36.29-36.29s16.25-36.29,36.29-36.29S286-110.68,286-90.64
			S269.75-54.36,249.71-54.36z"/>
	</g>
	<g class="st3">
		<path class="st4" d="M252.78-83.96c1.25-0.54,2.42-1.34,3.4-2.42c1.25-1.34,2.15-3.05,2.51-4.84c4.66-3.05,7.88-7.97,8.78-13.62
			c0-0.27,0-0.54-0.18-0.72s-0.45-0.27-0.72-0.27h-7.17c0.18-0.99,0.45-1.88,0.72-2.69c0.09-0.27,0-0.54-0.09-0.81
			c-0.18-0.27-0.45-0.45-0.72-0.45h-21.14c-0.27,0-0.54,0.18-0.72,0.36c-0.18,0.27-0.18,0.54-0.09,0.81
			c0.27,0.9,0.45,1.79,0.72,2.69h-7.17c-0.27,0-0.54,0.09-0.72,0.27c-0.18,0.27-0.18,0.54-0.18,0.81c0.9,5.64,4.03,10.66,8.69,13.62
			l0,0c0.36,1.79,1.25,3.49,2.51,4.93c0.99,1.07,2.15,1.88,3.4,2.42v3.67v0.09v0.09c0.54,2.6-0.81,3.67-2.24,4.84
			c-0.72,0.63-1.43,1.16-1.88,1.97h-3.05c-0.54,0-0.9,0.36-0.9,0.9v4.66c0,0.54,0.36,0.9,0.9,0.9h22.4c0.54,0,0.9-0.36,0.9-0.9
			v-4.66c0-0.54-0.36-0.9-0.9-0.9h-3.05c-0.45-0.81-1.16-1.43-1.79-2.06c-1.34-1.16-2.6-2.33-2.33-4.84c0-0.09,0-0.27,0-0.36l0,0
			v-3.49H252.78z M259.14-103.76L259.14-103.76c0-0.09,0-0.27,0.09-0.36h6.36c-0.9,4.21-3.22,7.97-6.54,10.57
			C258.96-93.73,258.78-100.89,259.14-103.76z M238.54-93.55c-3.31-2.6-5.64-6.27-6.54-10.57h6.36
			C238.98-102.6,238.54-93.73,238.54-93.55z M259.05-71.42v2.87h-20.6v-2.87H259.05z M253.94-73.93c0.27,0.27,0.54,0.45,0.81,0.72
			h-11.82c0.18-0.18,0.45-0.45,0.72-0.63c1.34-1.08,3.14-2.6,2.96-5.55h4.39C250.99-76.62,252.6-75.09,253.94-73.93z M251.08-81.19
			h-4.75c0-0.09,0-0.18,0.09-0.27v-1.88l0,0c0.72,0.18,1.52,0.27,2.24,0.27c0.72,0,1.52-0.09,2.24-0.27h0.09
			C250.99-83.34,250.99-81.28,251.08-81.19z M248.75-84.86L248.75-84.86c-2.33,0-4.57-0.99-6.18-2.69c-1.61-1.7-2.42-4.03-2.24-6.36
			c0.36-5.64,0.09-10.21-0.9-14.06h18.63c-0.99,3.85-1.34,8.42-0.9,14.06c0.18,2.42-0.63,4.66-2.24,6.36
			C253.32-85.84,251.08-84.86,248.75-84.86z"/>
	</g>
</g>
</svg>
